<svg xmlns="http://www.w3.org/2000/svg" viewBox="0 0 246.27 337.52"><defs><style>.cls-1{fill:#404040;}.cls-2{fill:#ffdac6;}.cls-3{fill:#bfbfbf;}.cls-4,.cls-6,.cls-7{fill:none;}.cls-4,.cls-6,.cls-7,.cls-8{stroke:#000;}.cls-4{stroke-miterlimit:10;}.cls-4,.cls-6,.cls-8{stroke-width:8px;}.cls-5{fill:#7a4920;}.cls-7{stroke-width:7px;}.cls-8{fill:#f0f0f0;}</style></defs><title>Asset 2</title><g id="Layer_2" data-name="Layer 2"><g id="Layer_1-2" data-name="Layer 1"><path class="cls-1" d="M162.55,276.71v60.81H83.32V276.74l3.47-23.28,9.63,3.34a82,82,0,0,0,55-.46l7.67-2.81,3.46,23.21Z"/><path class="cls-2" d="M162.55,234.49v17.77l-3.48,1.27L153.92,219l0,.05,4.47,4.87A15.6,15.6,0,0,1,162.55,234.49Z"/><path class="cls-2" d="M153.92,219l5.15,34.53-7.67,2.81a82,82,0,0,1-55,.46l-9.63-3.34L91.94,219a11.94,11.94,0,0,0,2.62-7.46V167H151.3v45.21A10.09,10.09,0,0,0,153.92,219Z"/><path class="cls-3" d="M94.56,201.42,91.94,219c-.17.21-.34.41-.52.61l-4.26,4.65a14.59,14.59,0,0,0-3.84,9.87v42.65l-29.13-40.1a21.27,21.27,0,0,1-3.65-8.32,21,21,0,0,1-.42-4.2v-1a21.71,21.71,0,0,1,21.71-21.71Z"/><polygon class="cls-2" points="86.79 253.46 83.32 276.74 83.32 252.26 86.79 253.46"/><path class="cls-3" d="M195.73,223.13v1a21.28,21.28,0,0,1-4.07,12.52l-29.11,40.07V234.49a15.6,15.6,0,0,0-4.12-10.57L154,219.05l0-.05-2.62-17.58H174A21.71,21.71,0,0,1,195.73,223.13Z"/><path class="cls-2" d="M91.94,219l-5.15,34.5-3.47-1.2V234.09a14.59,14.59,0,0,1,3.84-9.87l4.26-4.65C91.6,219.37,91.77,219.17,91.94,219Z"/><polygon class="cls-2" points="162.55 252.26 162.55 276.71 162.53 276.74 159.07 253.53 162.55 252.26"/><path class="cls-3" d="M242.27,274.49v63H162.55V276.71l29.11-40.07a21.25,21.25,0,0,0,3.66-8.36l.41,0h.38A46.17,46.17,0,0,1,242.27,274.49Z"/><path class="cls-3" d="M83.32,276.74v60.78H4v-63a46.17,46.17,0,0,1,46.16-46.17h.38a21.27,21.27,0,0,0,3.65,8.32Z"/><path class="cls-4" d="M50.54,228.32h-.38A46.17,46.17,0,0,0,4,274.49v63"/><path class="cls-4" d="M94.56,201.42H71.83a21.71,21.71,0,0,0-21.71,21.71v1a21,21,0,0,0,.42,4.2,21.27,21.27,0,0,0,3.65,8.32l29.13,40.1"/><path class="cls-4" d="M195.73,228.32h.38a46.17,46.17,0,0,1,46.16,46.17v63"/><path class="cls-4" d="M151.3,201.42H174a21.71,21.71,0,0,1,21.71,21.71v1a21.28,21.28,0,0,1-4.07,12.52l-29.11,40.07"/><path class="cls-4" d="M162.55,337.52v-103a15.6,15.6,0,0,0-4.12-10.57L154,219.05l0-.05a10.09,10.09,0,0,1-2.62-6.79V167H94.56v44.5A11.94,11.94,0,0,1,91.94,219c-.17.21-.34.41-.52.61l-4.26,4.65a14.59,14.59,0,0,0-3.84,9.87V337.52"/><path class="cls-2" d="M161.61,165.42l-17,19.49a2.89,2.89,0,0,1-1.72,1l-12.34,2c-1.21.12-12.57.22-13.89-.15l-11.6-2a2,2,0,0,1-1.3-.79l-6-8c-6.67-9.21-16.9-15.11-26.25-21.57l-9.64-9.7A5.21,5.21,0,0,1,60.41,142V86.88a8.58,8.58,0,0,0-.34-2.36l-3-10.14,26.05-.78c1.06,0,2.12-.12,3.17-.25l14.75-1.92a43,43,0,0,0,8.8-1.52l45.57-12.86a4.06,4.06,0,0,1,3.19.43l25.94,15.69v70a4.09,4.09,0,0,1-2.15,3.61l-.31.17C174.74,150.93,167.08,159,161.61,165.42Z"/><path class="cls-5" d="M184.59,34.85V73.17L158.65,57.48a4.06,4.06,0,0,0-3.19-.43L109.89,69.91a43,43,0,0,1-8.8,1.52L86.34,73.35c-1,.13-2.11.22-3.17.25l-26.05.78a4.5,4.5,0,0,0-1.35-2.12L37.58,56.14c-1.22-3.09-.14-5.54,1.93-5.54l11.17.29c2.69-.37,3.71-3.07,1.8-4.67L38.72,34.34c-3-2.44-2.23-7.15,2.25-7.13l10.18-.34a1.54,1.54,0,0,0,1.16-2.56L38.25,8.17A2.61,2.61,0,0,1,40.35,4L144.23,5l3.9,1.23a15.11,15.11,0,0,1,7.35,5.09l.67,1.22a10,10,0,0,0,6.74,4.95l6.37,1.29a24.78,24.78,0,0,1,7.11,3.54l2.85,2.05A12.91,12.91,0,0,1,184.59,34.85Z"/><path class="cls-6" d="M57.12,74.38l3,10.14a8.58,8.58,0,0,1,.34,2.36V142a5.21,5.21,0,0,0,1.52,3.69l9.64,9.7c9.35,6.46,19.58,12.36,26.25,21.57l6,8a2,2,0,0,0,1.3.79l11.6,2c1.32.37,12.68.27,13.89.15l12.34-2a2.89,2.89,0,0,0,1.72-1l17-19.49c5.47-6.38,13.13-14.49,20.52-18.5l.31-.17a4.09,4.09,0,0,0,2.15-3.61V34.85a12.91,12.91,0,0,0-5.37-10.48l-2.85-2.05a24.78,24.78,0,0,0-7.11-3.54l-6.37-1.29a10,10,0,0,1-6.74-4.95l-.67-1.22a15.11,15.11,0,0,0-7.35-5.09L144.23,5,40.35,4a2.61,2.61,0,0,0-2.1,4.17L52.31,24.31a1.54,1.54,0,0,1-1.16,2.56L41,27.21c-4.48,0-5.3,4.69-2.25,7.13L52.48,46.22c1.91,1.6.89,4.3-1.8,4.67L39.51,50.6c-2.07,0-3.15,2.45-1.93,5.54L55.77,72.26A4.5,4.5,0,0,1,57.12,74.38Z"/><path class="cls-7" d="M57.12,74.38l26.05-.78c1.06,0,2.12-.12,3.17-.25l14.75-1.92a43,43,0,0,0,8.8-1.52l45.57-12.86a4.06,4.06,0,0,1,3.19.43l25.94,15.69"/><path class="cls-8" d="M60.41,105.82V111a18.69,18.69,0,0,0,9.32,16.18l.44.25a8.45,8.45,0,0,0,3.66,1.12l24.42-.22a15.47,15.47,0,0,0,11.1-9.81l2.22-8,1.43-6.28a6.79,6.79,0,0,0-6.62-8.3H70.24A9.83,9.83,0,0,0,60.41,105.82Z"/><path class="cls-8" d="M184.59,105.82V111a18.68,18.68,0,0,1-9.33,16.18l-.43.25a8.45,8.45,0,0,1-3.66,1.12l-24.43-.22a15.47,15.47,0,0,1-11.09-9.81l-2.22-8L132,104.29a6.79,6.79,0,0,1,6.61-8.3h36.15A9.83,9.83,0,0,1,184.59,105.82Z"/><line class="cls-6" x1="112.77" y1="100.48" x2="132.22" y2="100.48"/><path class="cls-6" d="M108.09,158.62l17.62-.33a22.47,22.47,0,0,0,7-1.87l11.25-5.1a17.47,17.47,0,0,1,7.22-1.56h4.36"/><rect x="61.71" y="281.11" width="9.54" height="44.66" rx="3.75"/><rect x="175.05" y="281.11" width="9.54" height="44.66" rx="3.75"/></g></g></svg>